/vscmnt/brussel_pixiu_data/_data_brussel/112/vsc11236/PredSimResults/SUBJ09opt3D/trackIG/worker_14.mot
version=1
nRows=8
nColumns=50
inDegrees=yes
endheader
                time	         pelvis_tilt	         pelvis_list	     pelvis_rotation	           pelvis_tx	           pelvis_ty	           pelvis_tz	       hip_flexion_r	     hip_adduction_r	      hip_rotation_r	        knee_angle_r	       ankle_angle_r	         mtp_angle_r	       hip_flexion_l	     hip_adduction_l	      hip_rotation_l	        knee_angle_l	       ankle_angle_l	         mtp_angle_l	    lumbar_extension	      lumbar_bending	     lumbar_rotation	 ercspn_r/activation	 intobl_r/activation	 extobl_r/activation	    abd_r/activation	    add_r/activation	hamstrings_r/activation	bifemsh_r/activation	glut_max_r/activation	iliopsoas_r/activation	rect_fem_r/activation	  vasti_r/activation	gastroc_r/activation	 soleus_r/activation	tib_ant_r/activation	 ercspn_l/activation	 intobl_l/activation	 extobl_l/activation	    abd_l/activation	    add_l/activation	hamstrings_l/activation	bifemsh_l/activation	glut_max_l/activation	iliopsoas_l/activation	rect_fem_l/activation	  vasti_l/activation	gastroc_l/activation	 soleus_l/activation	tib_ant_l/activation	
          0.00000000	         -8.49051127	         -5.03169468	          7.80738092	          0.00000000	          0.97097544	         -0.00168283	         36.48916795	          1.80891381	         -7.20845124	         -7.30925306	          9.56122902	          0.27091213	        -13.31303185	         -6.37371692	         -2.49076808	        -12.60755267	         -1.04117422	         42.48735838	        -10.95972137	          5.02028816	         -8.36835388	          0.10356997	          0.08909443	          0.02101346	          0.07930712	          0.48113074	          0.16797287	          0.27881432	          0.04048620	          0.17099953	          0.00999999	          0.00999999	          0.02569640	          0.01160110	          0.45617509	          0.02535276	          0.01561343	          0.00999999	          0.01811332	          0.12166206	          0.02328718	          0.24189332	          0.01561343	          0.52383895	          0.00999999	          0.01156617	          0.31311306	          0.13848413	          0.01160110	
          0.00960667	         -8.40936219	         -4.97881280	          7.71800828	          0.02273310	          0.96807681	         -0.00106580	         36.27924816	          1.92821203	         -7.65555828	         -8.90938388	          8.90457146	          0.30097597	        -13.25009196	         -6.52809032	         -2.95848780	        -15.14638662	         -2.39438882	         43.75141338	        -10.52374215	          5.11623483	         -8.45680866	          0.08927590	          0.07679818	          0.01811332	          0.07426400	          0.45950643	          0.14479032	          0.24033415	          0.31633598	          0.14739927	          0.00999999	          0.00999999	          0.02214995	          0.00999999	          0.48799822	          0.02185373	          0.01345857	          0.01160110	          0.01561343	          0.13634803	          0.02007323	          0.20850875	          0.01345857	          0.60570004	          0.00999999	          0.00999999	          0.26989919	          0.11937143	          0.00999999	
          0.01921334	         -8.31366805	         -4.97026466	          7.59689646	          0.04542936	          0.96517772	         -0.00040509	         36.00424414	          2.05860084	         -7.92799136	        -10.85883978	          8.22808234	          0.22359839	        -12.79759891	         -6.76366003	         -3.42010242	        -18.41793211	         -3.61853488	         44.29710539	        -10.10254852	          5.26624774	         -8.48391074	          0.07695461	          0.06619899	          0.01561343	          0.23935613	          0.39608827	          0.12480728	          0.20716476	          0.49524938	          0.12705616	          0.00999999	          0.04736212	          0.01909295	          0.01160110	          0.57989981	          0.05650054	          0.01160110	          0.00999999	          0.01345857	          0.11753014	          0.01730285	          0.17973170	          0.01160110	          0.67806082	          0.00999999	          0.00999999	          0.23264942	          0.10289655	          0.00999999	
          0.02882001	         -8.21037865	         -5.01055829	          7.43751281	          0.06766661	          0.96265376	          0.00034694	         35.74307738	          2.24760976	         -8.11065467	        -12.79199607	          7.51439408	          0.20692261	        -11.86746680	         -7.09502363	         -3.85820852	        -22.45190008	         -4.96037977	         44.14818798	         -9.74575430	          5.47377861	         -8.44007337	          0.06633382	          0.05706262	          0.01345857	          0.29398366	          0.34142269	          0.10758218	          0.17857319	          0.54533732	          0.10952067	          0.00999999	          0.16254798	          0.01645786	          0.00999999	          0.68242168	          0.12317673	          0.00999999	          0.00999999	          0.01160110	          0.10130938	          0.01491482	          0.15492627	          0.00999999	          0.58447918	          0.00999999	          0.00999999	          0.20054063	          0.08869542	          0.00999999	
          0.03842668	         -8.10362777	         -5.09248849	          7.23300595	          0.08918464	          0.96076760	          0.00120189	         35.55803060	          2.50323773	         -8.16700175	        -14.75775008	          6.74290514	          0.14532933	        -10.45594918	         -7.51760520	         -4.26896623	        -27.15401734	         -6.52091477	         43.03336625	         -9.48397158	          5.72952427	         -8.31877604	          0.05717885	          0.04918720	          0.01160110	          0.36496225	          0.29430170	          0.09273437	          0.15392766	          0.56759904	          0.09440533	          0.00999999	          0.39476746	          0.01418645	          0.00999999	          0.72387671	          0.22109192	          0.00999999	          0.00999999	          0.00999999	          0.15866066	          0.01285637	          0.13354433	          0.00999999	          0.50381309	          0.00999999	          0.00999999	          0.17286329	          0.07645424	          0.07403547	
          0.04803335	         -7.99929428	         -5.18370227	          6.99176573	          0.10986291	          0.95968433	          0.00210416	         35.37637659	          2.80372030	         -8.08199106	        -16.73049280	          6.50370468	          0.06348339	         -8.61528996	         -7.98567412	         -4.59246923	        -32.39882828	         -8.03972010	         40.31983213	         -9.32694536	          5.99838752	         -8.13455248	          0.04928739	          0.04239870	          0.00999999	          0.43968756	          0.25368405	          0.07993576	          0.13268354	          0.49618107	          0.08137610	          0.00999999	          0.54319296	          0.01222853	          0.01000008	          0.71796525	          0.26588399	          0.00999999	          0.02333701	          0.00999999	          0.15859701	          0.01108202	          0.11511339	          0.00999999	          0.43428001	          0.00999999	          0.00999999	          0.14900579	          0.06590251	          0.26299172	
          0.05764002	         -7.90499697	         -5.30491547	          6.71573312	          0.12960141	          0.95949313	          0.00297432	         35.12305880	          3.17580695	         -7.86646370	        -18.54907904	          6.80185551	          0.01198749	         -6.43934825	         -8.45716850	         -4.70060241	        -37.97393919	         -9.12994630	         35.93483802	         -9.27398491	          6.31000605	         -7.88438921	          0.04248506	          0.03654710	          0.00999999	          0.44289270	          0.21867219	          0.06890354	          0.11437140	          0.42770131	          0.07014509	          0.00999999	          0.55463461	          0.01054083	          0.00999999	          0.65697662	          0.26899633	          0.02124984	          0.02168972	          0.00999999	          0.13670846	          0.00999999	          0.09922618	          0.00999999	          0.37434344	          0.00999999	          0.00999999	          0.12844096	          0.05680707	          0.27103828	
          0.06724669	         -7.82452538	         -5.44058033	          6.40222698	          0.14844812	          0.96014701	          0.00371754	         34.76136894	          3.59184335	         -7.58428545	        -20.10176634	          7.35523455	         -0.00829460	         -4.07034386	         -8.82645658	         -4.54250089	        -43.59529564	         -8.96793356	         31.72688427	         -9.31599938	          6.65325026	         -7.56513984	          0.03662154	          0.03150310	          0.00999999	          0.40708676	          0.18849245	          0.05939391	          0.09858659	          0.36867270	          0.06046411	          0.00999999	          0.53837570	          0.00999999	          0.00999999	          0.57232971	          0.23187117	          0.03337318	          0.03439575	          0.00999999	          0.12392858	          0.00999999	          0.10372829	          0.00999999	          0.32267894	          0.11316767	          0.00999999	          0.11071436	          0.04896692	          0.29807377	
